<svg id="Layer_1" data-name="Layer 1" xmlns="http://www.w3.org/2000/svg" viewBox="0 0 240 240">
	<defs>
		<style>.cls-1{fill:none;}.cls-2{fill:#1d1d1b;}.cls-3{fill:#fff;}</style>
	</defs>
	<rect class="cls-1" width="240" height="240"/>
	<rect class="cls-2" x="25" y="65" width="190" height="110"/>
	<rect class="cls-3" x="45" y="85" width="10" height="10"/>
	<rect class="cls-3" x="65" y="85" width="10" height="10"/>
	<rect class="cls-3" x="85" y="85" width="10" height="10"/>
	<rect class="cls-3" x="105" y="85" width="10" height="10"/>
	<rect class="cls-3" x="125" y="85" width="10" height="10"/>
	<rect class="cls-3" x="145" y="85" width="10" height="10"/>
	<rect class="cls-3" x="165" y="85" width="10" height="10"/>
	<rect class="cls-3" x="185" y="85" width="10" height="10"/>
	<rect class="cls-3" x="45" y="105" width="10" height="10"/>
	<rect class="cls-3" x="65" y="105" width="10" height="10"/>
	<rect class="cls-3" x="85" y="105" width="10" height="10"/>
	<rect class="cls-3" x="105" y="105" width="10" height="10"/>
	<rect class="cls-3" x="125" y="105" width="10" height="10"/>
	<rect class="cls-3" x="145" y="105" width="10" height="10"/>
	<rect class="cls-3" x="165" y="105" width="10" height="10"/>
	<rect class="cls-3" x="185" y="105" width="10" height="10"/>
	<rect class="cls-3" x="45" y="125" width="10" height="10"/>
	<rect class="cls-3" x="65" y="125" width="10" height="10"/>
	<rect class="cls-3" x="85" y="125" width="10" height="10"/>
	<rect class="cls-3" x="105" y="125" width="10" height="10"/>
	<rect class="cls-3" x="125" y="125" width="10" height="10"/>
	<rect class="cls-3" x="145" y="125" width="10" height="10"/>
	<rect class="cls-3" x="165" y="125" width="10" height="10"/>
	<rect class="cls-3" x="185" y="125" width="10" height="10"/>
	<rect class="cls-3" x="65" y="145" width="110" height="10"/>
</svg>